<svg xmlns="http://www.w3.org/2000/svg" width="1200" height="630" viewBox="0 0 1200 630" role="img" aria-label="식사 메뉴 추첨기 공유 이미지">
  <defs>
    <radialGradient id="bgGlow" cx="0" cy="0" r="1">
      <stop offset="0%" stop-color="#f7d9c4"/>
      <stop offset="60%" stop-color="#f6f1e9"/>
    </radialGradient>
  </defs>
  <rect width="1200" height="630" fill="url(#bgGlow)"/>
  <g opacity="0.15" fill="#241f1a">
    <circle cx="80" cy="80" r="3"/>
    <circle cx="120" cy="140" r="3"/>
    <circle cx="200" cy="100" r="3"/>
    <circle cx="280" cy="160" r="3"/>
    <circle cx="360" cy="120" r="3"/>
    <circle cx="440" cy="180" r="3"/>
    <circle cx="520" cy="140" r="3"/>
    <circle cx="600" cy="200" r="3"/>
    <circle cx="680" cy="160" r="3"/>
    <circle cx="760" cy="220" r="3"/>
    <circle cx="840" cy="180" r="3"/>
    <circle cx="920" cy="240" r="3"/>
    <circle cx="1000" cy="200" r="3"/>
    <circle cx="1080" cy="260" r="3"/>
  </g>

  <rect x="120" y="90" width="960" height="450" rx="36" fill="#fffaf3" stroke="#e5d5c5" stroke-width="4"/>

  <!-- Menu sheet -->
  <rect x="210" y="170" width="280" height="300" rx="24" fill="#f7d9c4" stroke="#ff6b35" stroke-width="10"/>
  <line x1="250" y1="240" x2="440" y2="240" stroke="#241f1a" stroke-width="12" stroke-linecap="round"/>
  <line x1="250" y1="300" x2="440" y2="300" stroke="#241f1a" stroke-width="12" stroke-linecap="round"/>
  <line x1="250" y1="360" x2="380" y2="360" stroke="#241f1a" stroke-width="12" stroke-linecap="round"/>

  <!-- Recommendation check -->
  <circle cx="690" cy="330" r="110" fill="#1b998b"/>
  <path d="M635 332l40 42 85-95" fill="none" stroke="#fffaf3" stroke-width="18" stroke-linecap="round" stroke-linejoin="round"/>

  <!-- Brand text -->
  <text x="520" y="230" font-size="44" font-family="'Chakra Petch','Gowun Dodum',sans-serif" fill="#241f1a" font-weight="700">식사 메뉴 추첨기</text>
  <text x="520" y="280" font-size="28" font-family="'Gowun Dodum',sans-serif" fill="#6f675d">후보를 모아 랜덤으로 추천</text>

  <!-- Accent star -->
  <path d="M950 160l18 38 42 5-30 28 8 41-38-21-38 21 8-41-30-28 42-5 18-38z" fill="#1b998b"/>
</svg>
